<?xml version="1.0" encoding="UTF-8" standalone="no"?>
<!DOCTYPE svg PUBLIC "-//W3C//DTD SVG 1.1//EN"
 "http://www.w3.org/Graphics/SVG/1.1/DTD/svg11.dtd">
<!-- Generated by graphviz version 2.47.3 (20210619.1520)
 -->
<!-- Title: dependencies Pages: 1 -->
<svg width="446pt" height="247pt"
 viewBox="0.00 0.00 446.00 246.80" xmlns="http://www.w3.org/2000/svg" xmlns:xlink="http://www.w3.org/1999/xlink">
<g id="graph0" class="graph" transform="scale(1 1) rotate(0) translate(4 242.8)">
<title>dependencies</title>
<polygon fill="white" stroke="transparent" points="-4,4 -4,-242.8 442,-242.8 442,4 -4,4"/>
<text text-anchor="middle" x="219" y="-8.2" font-family="sans-serif" font-size="14.00">dependencies</text>
<g id="clust1" class="cluster">
<title>cluster_ViewsModule</title>
<polygon fill="none" stroke="black" stroke-dasharray="1,5" points="8,-32.8 8,-230.8 430,-230.8 430,-32.8 8,-32.8"/>
</g>
<g id="clust2" class="cluster">
<title>cluster_ViewsModule_declarations</title>
<polygon fill="none" stroke="black" points="296,-40.8 296,-92.8 422,-92.8 422,-40.8 296,-40.8"/>
</g>
<g id="clust4" class="cluster">
<title>cluster_ViewsModule_imports</title>
<polygon fill="none" stroke="black" points="16,-40.8 16,-92.8 288,-92.8 288,-40.8 16,-40.8"/>
</g>
<g id="clust5" class="cluster">
<title>cluster_ViewsModule_exports</title>
<polygon fill="none" stroke="black" points="73,-170.8 73,-222.8 365,-222.8 365,-170.8 73,-170.8"/>
</g>
<!-- MainComponent -->
<g id="node1" class="node">
<title>MainComponent</title>
<polygon fill="#ffffb3" stroke="black" points="414.38,-84.8 303.62,-84.8 303.62,-48.8 414.38,-48.8 414.38,-84.8"/>
<text text-anchor="middle" x="359" y="-62.6" font-family="Times,serif" font-size="14.00">MainComponent</text>
</g>
<!-- ViewsModule -->
<g id="node2" class="node">
<title>ViewsModule</title>
<polygon fill="#8dd3c7" stroke="black" points="278.81,-149.8 275.81,-153.8 254.81,-153.8 251.81,-149.8 183.19,-149.8 183.19,-113.8 278.81,-113.8 278.81,-149.8"/>
<text text-anchor="middle" x="231" y="-127.6" font-family="Times,serif" font-size="14.00">ViewsModule</text>
</g>
<!-- MainComponent&#45;&gt;ViewsModule -->
<g id="edge1" class="edge">
<title>MainComponent&#45;&gt;ViewsModule</title>
<path fill="none" stroke="black" d="M330.38,-84.91C330.38,-104.14 330.38,-131.8 330.38,-131.8 330.38,-131.8 288.94,-131.8 288.94,-131.8"/>
<polygon fill="black" stroke="black" points="288.94,-128.3 278.94,-131.8 288.94,-135.3 288.94,-128.3"/>
</g>
<!-- MainComponent  -->
<g id="node5" class="node">
<title>MainComponent </title>
<polygon fill="#fb8072" stroke="black" points="357.38,-214.8 242.62,-214.8 242.62,-178.8 357.38,-178.8 357.38,-214.8"/>
<text text-anchor="middle" x="300" y="-192.6" font-family="Times,serif" font-size="14.00">MainComponent </text>
</g>
<!-- ViewsModule&#45;&gt;MainComponent  -->
<g id="edge4" class="edge">
<title>ViewsModule&#45;&gt;MainComponent </title>
<path fill="none" stroke="black" stroke-dasharray="5,2" d="M260.73,-149.91C260.73,-149.91 260.73,-168.79 260.73,-168.79"/>
<polygon fill="black" stroke="black" points="257.23,-168.79 260.73,-178.79 264.23,-168.79 257.23,-168.79"/>
</g>
<!-- ViewsRoutingModule  -->
<g id="node6" class="node">
<title>ViewsRoutingModule </title>
<polygon fill="#fb8072" stroke="black" points="224.93,-214.8 81.07,-214.8 81.07,-178.8 224.93,-178.8 224.93,-214.8"/>
<text text-anchor="middle" x="153" y="-192.6" font-family="Times,serif" font-size="14.00">ViewsRoutingModule </text>
</g>
<!-- ViewsModule&#45;&gt;ViewsRoutingModule  -->
<g id="edge5" class="edge">
<title>ViewsModule&#45;&gt;ViewsRoutingModule </title>
<path fill="none" stroke="black" stroke-dasharray="5,2" d="M204.15,-149.91C204.15,-149.91 204.15,-168.79 204.15,-168.79"/>
<polygon fill="black" stroke="black" points="200.65,-168.79 204.15,-178.79 207.65,-168.79 200.65,-168.79"/>
</g>
<!-- SharedModule -->
<g id="node3" class="node">
<title>SharedModule</title>
<polygon fill="#8dd3c7" stroke="black" points="280.42,-84.8 277.42,-88.8 256.42,-88.8 253.42,-84.8 181.58,-84.8 181.58,-48.8 280.42,-48.8 280.42,-84.8"/>
<text text-anchor="middle" x="231" y="-62.6" font-family="Times,serif" font-size="14.00">SharedModule</text>
</g>
<!-- SharedModule&#45;&gt;ViewsModule -->
<g id="edge2" class="edge">
<title>SharedModule&#45;&gt;ViewsModule</title>
<path fill="none" stroke="black" d="M231,-84.91C231,-84.91 231,-103.79 231,-103.79"/>
<polygon fill="black" stroke="black" points="227.5,-103.79 231,-113.79 234.5,-103.79 227.5,-103.79"/>
</g>
<!-- ViewsRoutingModule -->
<g id="node4" class="node">
<title>ViewsRoutingModule</title>
<polygon fill="#8dd3c7" stroke="black" points="164.43,-84.8 161.43,-88.8 140.43,-88.8 137.43,-84.8 23.57,-84.8 23.57,-48.8 164.43,-48.8 164.43,-84.8"/>
<text text-anchor="middle" x="94" y="-62.6" font-family="Times,serif" font-size="14.00">ViewsRoutingModule</text>
</g>
<!-- ViewsRoutingModule&#45;&gt;ViewsModule -->
<g id="edge3" class="edge">
<title>ViewsRoutingModule&#45;&gt;ViewsModule</title>
<path fill="none" stroke="black" d="M122.62,-84.91C122.62,-104.14 122.62,-131.8 122.62,-131.8 122.62,-131.8 173.15,-131.8 173.15,-131.8"/>
<polygon fill="black" stroke="black" points="173.15,-135.3 183.15,-131.8 173.15,-128.3 173.15,-135.3"/>
</g>
</g>
</svg>
